<svg width="53" height="53" viewBox="0 0 53 53" fill="none" xmlns="http://www.w3.org/2000/svg">
<circle cx="26.161" cy="26.161" r="26.161" transform="matrix(1 0 0 -1 0 52.3218)" fill="#D9D9D9" fill-opacity="0.5"/>
<path d="M11.2127 26.8983C10.6269 26.3125 10.6269 25.3628 11.2127 24.777L20.7587 15.231C21.3444 14.6453 22.2942 14.6453 22.88 15.231C23.4658 15.8168 23.4658 16.7666 22.88 17.3524L14.3947 25.8376L22.88 34.3229C23.4658 34.9087 23.4658 35.8585 22.88 36.4442C22.2942 37.03 21.3444 37.03 20.7587 36.4442L11.2127 26.8983ZM39.4033 27.3376L12.2734 27.3376L12.2734 24.3376L39.4033 24.3376L39.4033 27.3376Z" fill="white"/>
</svg>
